# xmcd CD database file
#
# Track frame offsets:
#	150
#	7482
#	75912
#	129705
#	162610
#	245312
#	250305
#	282234
#
# Disc length: 4099 seconds
#
# Revision: 0
# Processed by: cddbd v1.5.1PL0 Copyright (c) Steve Scherf et al.
# Submitted via: CDex 1.51
#
DISCID=6b100108
DTITLE=Dave Holland Quintet - BBC Broadcast
DYEAR=2003
DGENRE=Jazz
TTITLE0=Band Introductions
TTITLE1=Last Minute Man
TTITLE2=Herbaceous
TTITLE3=Make Believe
TTITLE4=Global Citizen
TTITLE5=Closing Comments
TTITLE6=Three Step Dance (Holland solo)
TTITLE7=Goodbye Pork Pie Hat (Holland solo)
EXTD=YEAR: 2003
EXTT0=
EXTT1=
EXTT2=
EXTT3=
EXTT4=
EXTT5=
EXTT6=
EXTT7=
PLAYORDER=
